<svg width="316" height="90" viewBox="0 0 316 90" fill="none" xmlns="http://www.w3.org/2000/svg">
<path d="M85.25 10.625V57H76.4688V10.625H85.25ZM102.094 57.625C98.8229 57.625 96.2708 56.7396 94.4375 54.9688C92.6042 53.1771 91.6875 50.6667 91.6875 47.4375C91.6875 43.9375 92.8229 41.2812 95.0938 39.4688C97.3854 37.6562 100.698 36.7083 105.031 36.625L112.312 36.5V34.7812C112.312 32.5729 111.927 30.9375 111.156 29.875C110.385 28.7917 109.125 28.25 107.375 28.25C105.75 28.25 104.552 28.625 103.781 29.375C103.031 30.1042 102.562 31.3229 102.375 33.0312L93.2188 32.5938C94.3646 25.9062 99.2083 22.5625 107.75 22.5625C112.021 22.5625 115.312 23.6146 117.625 25.7188C119.938 27.8229 121.094 30.8125 121.094 34.6875V47C121.094 48.8958 121.302 50.2083 121.719 50.9375C122.156 51.6458 122.875 52 123.875 52C124.542 52 125.188 51.9375 125.812 51.8125V56.5625C124.729 56.8333 123.802 57.0312 123.031 57.1562C122.26 57.3021 121.312 57.375 120.188 57.375C117.979 57.375 116.344 56.8333 115.281 55.75C114.24 54.6667 113.615 53.0729 113.406 50.9688H113.219C111.99 53.1771 110.448 54.8438 108.594 55.9688C106.74 57.0729 104.573 57.625 102.094 57.625ZM112.312 41.3438L107.812 41.4062C105.75 41.5104 104.302 41.7292 103.469 42.0625C102.615 42.4375 101.958 43 101.5 43.75C101.062 44.5 100.844 45.5 100.844 46.75C100.844 48.3542 101.208 49.5521 101.938 50.3438C102.688 51.1146 103.677 51.5 104.906 51.5C106.281 51.5 107.542 51.125 108.688 50.375C109.812 49.625 110.698 48.5938 111.344 47.2812C111.99 45.9479 112.312 44.5417 112.312 43.0625V41.3438ZM158.406 47.125C158.406 50.3958 157.062 52.9688 154.375 54.8438C151.708 56.6979 148.01 57.625 143.281 57.625C138.635 57.625 135.073 56.8958 132.594 55.4375C130.135 53.9583 128.5 51.6667 127.688 48.5625L135.406 47.4062C135.844 49.0104 136.594 50.1458 137.656 50.8125C138.74 51.4792 140.615 51.8125 143.281 51.8125C145.74 51.8125 147.531 51.5 148.656 50.875C149.781 50.25 150.344 49.2708 150.344 47.9375C150.344 46.8542 149.885 46 148.969 45.375C148.073 44.7292 146.542 44.1875 144.375 43.75C142.729 43.4167 141.25 43.0938 139.938 42.7812C138.646 42.4688 137.531 42.1667 136.594 41.875C135.677 41.5625 134.927 41.2708 134.344 41C132.615 40.1458 131.292 39.0521 130.375 37.7188C129.479 36.3854 129.031 34.7396 129.031 32.7812C129.031 29.5521 130.271 27.0417 132.75 25.25C135.25 23.4375 138.781 22.5312 143.344 22.5312C147.365 22.5312 150.594 23.3125 153.031 24.875C155.49 26.4375 157.021 28.6979 157.625 31.6562L149.844 32.4688C149.594 31.0938 148.979 30.0729 148 29.4062C147.021 28.7188 145.469 28.375 143.344 28.375C141.26 28.375 139.698 28.6458 138.656 29.1875C137.615 29.7083 137.094 30.5938 137.094 31.8438C137.094 32.8229 137.49 33.6042 138.281 34.1875C139.094 34.75 140.448 35.2188 142.344 35.5938C144.99 36.1354 147.333 36.6979 149.375 37.2812C151.438 37.8438 153.094 38.5208 154.344 39.3125C155.573 40.1042 156.552 41.125 157.281 42.375C158.031 43.6042 158.406 45.1875 158.406 47.125ZM181.594 56.5C179.469 57.2083 177 57.5625 174.188 57.5625C171.604 57.5625 169.615 56.8646 168.219 55.4688C166.823 54.0521 166.125 51.9167 166.125 49.0625V29.125H161.844V23.1875H166.562L169.312 15.25H174.812V23.1875H181.219V29.125H174.812V46.6875C174.812 48.3333 175.125 49.5521 175.75 50.3438C176.375 51.1146 177.344 51.5 178.656 51.5C179.281 51.5 180.26 51.3542 181.594 51.0625V56.5ZM195.625 10.625V17.0938H186.844V10.625H195.625ZM195.625 23.1875V57H186.844V23.1875H195.625Z" fill="#00B0E8"/>
<path d="M35.5425 20.8494C44.2304 20.8496 51.189 27.2338 51.189 35.0095C51.1887 42.7851 44.2303 49.1685 35.5425 49.1687C26.8545 49.1687 19.8952 42.7852 19.895 35.0095C19.895 27.2336 26.8543 20.8494 35.5425 20.8494Z" fill="#00B0E8" stroke="#00B0E8"/>
<path d="M6 89L6.4222 31.4019C6.47305 24.4643 8.70009 17.7796 14.0955 13.4181C14.6105 13.0018 15.0952 12.6175 15.5284 12.2783C16.8281 11.2609 16.7504 11.1416 18.2396 10.4298C22.3246 8.47729 28.082 6 32.6097 6H35.5C41.9306 6 48.5148 7.46906 53.5738 11.4388C54.4233 12.1054 55.2226 12.816 56 13.6322C56.7565 14.4265 57.5008 15.3576 58.2343 16.3764C61.3154 20.6555 62.9621 25.7767 63.8635 30.9721C63.9543 31.4955 64 32.0302 64 32.5614C64 39.5304 62.9128 46.8827 58.1862 52.0038C56.3951 53.9445 54.3145 55.712 51.7971 57.4922C47.7949 60.3223 42.9415 61.6227 38.0417 61.7582C32.3575 61.9153 25.5 62.001 25.5 61.5C25.5 60.6443 25.5 33.5 25.5 33.5" stroke="#00B0E8" stroke-width="12"/>
<path d="M85.25 10.625V57H76.4688V10.625H85.25ZM102.094 57.625C98.8229 57.625 96.2708 56.7396 94.4375 54.9688C92.6042 53.1771 91.6875 50.6667 91.6875 47.4375C91.6875 43.9375 92.8229 41.2812 95.0938 39.4688C97.3854 37.6562 100.698 36.7083 105.031 36.625L112.312 36.5V34.7812C112.312 32.5729 111.927 30.9375 111.156 29.875C110.385 28.7917 109.125 28.25 107.375 28.25C105.75 28.25 104.552 28.625 103.781 29.375C103.031 30.1042 102.562 31.3229 102.375 33.0312L93.2188 32.5938C94.3646 25.9062 99.2083 22.5625 107.75 22.5625C112.021 22.5625 115.312 23.6146 117.625 25.7188C119.938 27.8229 121.094 30.8125 121.094 34.6875V47C121.094 48.8958 121.302 50.2083 121.719 50.9375C122.156 51.6458 122.875 52 123.875 52C124.542 52 125.188 51.9375 125.812 51.8125V56.5625C124.729 56.8333 123.802 57.0312 123.031 57.1562C122.26 57.3021 121.312 57.375 120.188 57.375C117.979 57.375 116.344 56.8333 115.281 55.75C114.24 54.6667 113.615 53.0729 113.406 50.9688H113.219C111.99 53.1771 110.448 54.8438 108.594 55.9688C106.74 57.0729 104.573 57.625 102.094 57.625ZM112.312 41.3438L107.812 41.4062C105.75 41.5104 104.302 41.7292 103.469 42.0625C102.615 42.4375 101.958 43 101.5 43.75C101.062 44.5 100.844 45.5 100.844 46.75C100.844 48.3542 101.208 49.5521 101.938 50.3438C102.688 51.1146 103.677 51.5 104.906 51.5C106.281 51.5 107.542 51.125 108.688 50.375C109.812 49.625 110.698 48.5938 111.344 47.2812C111.99 45.9479 112.312 44.5417 112.312 43.0625V41.3438ZM158.406 47.125C158.406 50.3958 157.062 52.9688 154.375 54.8438C151.708 56.6979 148.01 57.625 143.281 57.625C138.635 57.625 135.073 56.8958 132.594 55.4375C130.135 53.9583 128.5 51.6667 127.688 48.5625L135.406 47.4062C135.844 49.0104 136.594 50.1458 137.656 50.8125C138.74 51.4792 140.615 51.8125 143.281 51.8125C145.74 51.8125 147.531 51.5 148.656 50.875C149.781 50.25 150.344 49.2708 150.344 47.9375C150.344 46.8542 149.885 46 148.969 45.375C148.073 44.7292 146.542 44.1875 144.375 43.75C142.729 43.4167 141.25 43.0938 139.938 42.7812C138.646 42.4688 137.531 42.1667 136.594 41.875C135.677 41.5625 134.927 41.2708 134.344 41C132.615 40.1458 131.292 39.0521 130.375 37.7188C129.479 36.3854 129.031 34.7396 129.031 32.7812C129.031 29.5521 130.271 27.0417 132.75 25.25C135.25 23.4375 138.781 22.5312 143.344 22.5312C147.365 22.5312 150.594 23.3125 153.031 24.875C155.49 26.4375 157.021 28.6979 157.625 31.6562L149.844 32.4688C149.594 31.0938 148.979 30.0729 148 29.4062C147.021 28.7188 145.469 28.375 143.344 28.375C141.26 28.375 139.698 28.6458 138.656 29.1875C137.615 29.7083 137.094 30.5938 137.094 31.8438C137.094 32.8229 137.49 33.6042 138.281 34.1875C139.094 34.75 140.448 35.2188 142.344 35.5938C144.99 36.1354 147.333 36.6979 149.375 37.2812C151.438 37.8438 153.094 38.5208 154.344 39.3125C155.573 40.1042 156.552 41.125 157.281 42.375C158.031 43.6042 158.406 45.1875 158.406 47.125ZM181.594 56.5C179.469 57.2083 177 57.5625 174.188 57.5625C171.604 57.5625 169.615 56.8646 168.219 55.4688C166.823 54.0521 166.125 51.9167 166.125 49.0625V29.125H161.844V23.1875H166.562L169.312 15.25H174.812V23.1875H181.219V29.125H174.812V46.6875C174.812 48.3333 175.125 49.5521 175.75 50.3438C176.375 51.1146 177.344 51.5 178.656 51.5C179.281 51.5 180.26 51.3542 181.594 51.0625V56.5ZM195.625 10.625V17.0938H186.844V10.625H195.625ZM195.625 23.1875V57H186.844V23.1875H195.625Z" fill="#00B0E8"/>
<path d="M211.514 56.5859C208.447 56.5859 206.055 55.7559 204.336 54.0957C202.617 52.416 201.758 50.0625 201.758 47.0352C201.758 43.7539 202.822 41.2637 204.951 39.5645C207.1 37.8652 210.205 36.9766 214.268 36.8984L221.094 36.7812V35.1699C221.094 33.0996 220.732 31.5664 220.01 30.5703C219.287 29.5547 218.105 29.0469 216.465 29.0469C214.941 29.0469 213.818 29.3984 213.096 30.1016C212.393 30.7852 211.953 31.9277 211.777 33.5293L203.193 33.1191C204.268 26.8496 208.809 23.7148 216.816 23.7148C220.82 23.7148 223.906 24.7012 226.074 26.6738C228.242 28.6465 229.326 31.4492 229.326 35.082V46.625C229.326 48.4023 229.521 49.6328 229.912 50.3164C230.322 50.9805 230.996 51.3125 231.934 51.3125C232.559 51.3125 233.164 51.2539 233.75 51.1367V55.5898C232.734 55.8438 231.865 56.0293 231.143 56.1465C230.42 56.2832 229.531 56.3516 228.477 56.3516C226.406 56.3516 224.873 55.8438 223.877 54.8281C222.9 53.8125 222.314 52.3184 222.119 50.3457H221.943C220.791 52.416 219.346 53.9785 217.607 55.0332C215.869 56.0684 213.838 56.5859 211.514 56.5859ZM221.094 41.3223L216.875 41.3809C214.941 41.4785 213.584 41.6836 212.803 41.9961C212.002 42.3477 211.387 42.875 210.957 43.5781C210.547 44.2812 210.342 45.2188 210.342 46.3906C210.342 47.8945 210.684 49.0176 211.367 49.7598C212.07 50.4824 212.998 50.8438 214.15 50.8438C215.439 50.8438 216.621 50.4922 217.695 49.7891C218.75 49.0859 219.58 48.1191 220.186 46.8887C220.791 45.6387 221.094 44.3203 221.094 42.9336V41.3223ZM267.588 40.0039C267.588 45.2969 266.523 49.3887 264.395 52.2793C262.285 55.1504 259.297 56.5859 255.43 56.5859C250.84 56.5859 247.637 54.7109 245.82 50.9609H245.645C245.762 51.5469 245.82 53.3242 245.82 56.293V68.4512H237.588V31.5957C237.588 30.0918 237.568 28.7344 237.529 27.5234C237.49 26.3125 237.432 25.2383 237.354 24.3008H245.352C245.43 24.5352 245.488 24.9355 245.527 25.502C245.586 26.0488 245.625 26.6738 245.645 27.377C245.684 28.0801 245.703 28.7734 245.703 29.457H245.82C246.738 27.5039 248.047 26.0488 249.746 25.0918C251.445 24.1152 253.516 23.627 255.957 23.627C259.648 23.627 262.51 25.0527 264.541 27.9043C266.572 30.7363 267.588 34.7695 267.588 40.0039ZM259.004 40.0039C259.004 36.4492 258.457 33.7832 257.363 32.0059C256.289 30.2285 254.658 29.3398 252.471 29.3398C250.283 29.3398 248.604 30.2969 247.432 32.2109C246.279 34.125 245.703 36.8008 245.703 40.2383C245.703 43.6562 246.279 46.3027 247.432 48.1777C248.604 50.0332 250.264 50.9609 252.412 50.9609C254.619 50.9609 256.27 50.0527 257.363 48.2363C258.457 46.4004 259.004 43.6562 259.004 40.0039ZM304.268 40.0039C304.268 45.2969 303.203 49.3887 301.074 52.2793C298.965 55.1504 295.977 56.5859 292.109 56.5859C287.52 56.5859 284.316 54.7109 282.5 50.9609H282.324C282.441 51.5469 282.5 53.3242 282.5 56.293V68.4512H274.268V31.5957C274.268 30.0918 274.248 28.7344 274.209 27.5234C274.17 26.3125 274.111 25.2383 274.033 24.3008H282.031C282.109 24.5352 282.168 24.9355 282.207 25.502C282.266 26.0488 282.305 26.6738 282.324 27.377C282.363 28.0801 282.383 28.7734 282.383 29.457H282.5C283.418 27.5039 284.727 26.0488 286.426 25.0918C288.125 24.1152 290.195 23.627 292.637 23.627C296.328 23.627 299.189 25.0527 301.221 27.9043C303.252 30.7363 304.268 34.7695 304.268 40.0039ZM295.684 40.0039C295.684 36.4492 295.137 33.7832 294.043 32.0059C292.969 30.2285 291.338 29.3398 289.15 29.3398C286.963 29.3398 285.283 30.2969 284.111 32.2109C282.959 34.125 282.383 36.8008 282.383 40.2383C282.383 43.6562 282.959 46.3027 284.111 48.1777C285.283 50.0332 286.943 50.9609 289.092 50.9609C291.299 50.9609 292.949 50.0527 294.043 48.2363C295.137 46.4004 295.684 43.6562 295.684 40.0039Z" fill="#303D50"/>
</svg>
